<svg xmlns="http://www.w3.org/2000/svg" viewBox="0 0 676 622" width="676" height="622">
	<style>
		tspan { white-space:pre }
		.shp0 { fill: #525252 } 
		.shp1 { fill: #444545 } 
		.shp2 { fill: #63bd6e } 
		.shp3 { fill: #117f4a } 
		.shp4 { fill: #616161 } 
		.shp5 { fill: #717171 } 
		.shp6 { fill: #727172 } 
		.shp7 { fill: #575656 } 
		.shp8 { fill: #d6cb78 } 
		.shp9 { fill: #ece17e } 
	</style>
	<g id="Layer 1">
		<g id="&lt;Group&gt;">
			<g id="&lt;Group&gt;">
				<g id="&lt;Group&gt;">
					<path id="&lt;Path&gt;" class="shp0" d="M669.98 539.5C669.98 578.18 660.91 577.44 620.39 577.44L73.75 577.44C33.21 577.44 0.36 546.08 0.36 507.41L0.36 178.68C0.36 140 33.21 108.63 73.75 108.63L616.47 108.63C657 108.63 669.98 122.5 669.98 161.17L669.98 539.5Z" />
					<path id="&lt;Path&gt;" class="shp1" d="M655.7 527.83C655.7 566.5 644.58 565.77 605.78 565.77L84.87 565.77C46.08 565.77 14.61 534.41 14.61 495.73L14.61 196.66C14.61 157.99 46.08 126.63 84.87 126.63L610.35 126.63C649.16 126.63 655.7 144.36 655.7 183.04L655.7 527.83Z" />
					<g id="&lt;Group&gt;">
						<g id="&lt;Group&gt;">
							<g id="&lt;Group&gt;">
								<path id="&lt;Path&gt;" class="shp2" d="M629.85 163L168.82 101.51L142.23 301L603.25 362.46L629.85 163Z" />
								<path id="&lt;Compound Path&gt;" fill-rule="evenodd" class="shp3" d="M596.62 352.31L151.26 292.93L175.43 111.65L620.79 171.05L596.62 352.31ZM616.22 175.21L178.74 116.89L155.82 288.79L593.32 347.09L616.22 175.21Z" />
								<path id="&lt;Path&gt;" class="shp3" d="M464.7 242.49C470.5 199.03 439.97 159.11 396.51 153.29C353.06 147.51 313.12 178.04 307.36 221.5C301.54 264.95 332.07 304.89 375.54 310.67C419 316.47 458.92 285.94 464.7 242.49Z" />
							</g>
						</g>
						<g id="&lt;Group&gt;">
							<path id="&lt;Compound Path&gt;" fill-rule="evenodd" class="shp2" d="M375.21 297.47L376.95 284.53C371.68 283.04 367.49 281.02 364.43 278.45C361.36 275.9 358.9 272.16 357.09 267.24C355.22 262.31 354.56 256.43 355.05 249.61L366.14 248.71C366.03 255.67 366.84 260.96 368.53 264.58C370.9 269.57 374.23 272.6 378.37 273.67L383.89 232.52C379.6 230.95 375.35 228.28 371.1 224.54C367.97 221.83 365.77 218.32 364.49 214.01C363.19 209.7 362.89 204.94 363.57 199.75C364.8 190.54 368.48 183.46 374.63 178.5C378.81 175.18 384.53 173.54 391.73 173.61L392.56 167.43L398.92 168.29L398.08 174.46C404.2 176.08 408.87 178.92 412.04 183.04C416.13 188.36 418.14 195.22 418.03 203.57L406.62 204.01C406.67 198.82 405.87 194.74 404.21 191.79C402.58 188.82 400.05 186.68 396.66 185.32L391.68 222.64C396.87 224.93 400.28 226.68 401.95 227.9C405.06 230.11 407.48 232.62 409.21 235.45C410.96 238.28 412.18 241.5 412.84 245.14C413.53 248.76 413.6 252.59 413.07 256.6C411.84 265.62 408.5 272.79 402.97 278.13C397.45 283.48 390.89 285.85 383.33 285.24L381.59 298.31L375.21 297.47ZM390.31 184.32C386.04 184.55 382.5 186.15 379.62 189.12C376.79 192.07 375.07 195.76 374.49 200.18C373.91 204.57 374.42 208.42 376.07 211.67C377.71 214.92 380.85 217.75 385.53 220.18L390.31 184.32ZM384.74 274.51C388.99 274.48 392.75 272.75 395.99 269.34C399.2 265.95 401.19 261.5 401.93 256.02C402.58 251.31 402.1 247.41 400.56 244.33C399.03 241.22 395.5 238.16 390.01 235.14L384.74 274.51Z" />
						</g>
					</g>
					<g id="&lt;Group&gt;">
						<g id="&lt;Group&gt;">
							<g id="&lt;Group&gt;">
								<path id="&lt;Path&gt;" class="shp2" d="M505.13 0.45L81.62 192.74L164.82 375.97L588.31 183.72L505.13 0.45Z" />
								<path id="&lt;Compound Path&gt;" fill-rule="evenodd" class="shp3" d="M577.34 178.61L168.19 364.34L92.61 197.82L501.74 12.09L577.34 178.61ZM500.07 18.05L98.18 200.49L169.88 358.41L571.77 175.95L500.07 18.05Z" />
								<path id="&lt;Path&gt;" class="shp3" d="M407.25 155.4C389.13 115.48 342.07 97.82 302.14 115.94C262.22 134.06 244.55 181.12 262.69 221.04C280.82 260.96 327.87 278.64 367.79 260.5C407.71 242.4 425.38 195.32 407.25 155.4Z" />
							</g>
						</g>
						<g id="&lt;Group&gt;">
							<path id="&lt;Compound Path&gt;" fill-rule="evenodd" class="shp2" d="M360.5 249.46L355.12 237.6C349.84 239.13 345.22 239.62 341.28 239.08C337.33 238.53 333.25 236.68 329.09 233.45C324.94 230.25 321.23 225.63 318.03 219.58L326.96 212.92C330.58 218.9 334.06 222.97 337.4 225.14C342.07 228.11 346.47 228.93 350.58 227.61L333.41 189.82C328.96 190.75 323.93 190.75 318.36 189.82C314.27 189.19 310.54 187.36 307.16 184.41C303.79 181.44 301 177.57 298.83 172.81C295 164.33 294.37 156.37 296.93 148.9C298.73 143.86 302.7 139.46 308.85 135.7L306.29 130.02L312.12 127.37L314.71 133.04C320.72 131.18 326.2 131.15 331.05 132.92C337.36 135.28 342.71 140.02 347.03 147.18L337.61 153.58C334.87 149.16 332.04 146.16 329.07 144.5C326.11 142.85 322.83 142.36 319.24 143.03L334.8 177.31C340.41 176.5 344.24 176.18 346.29 176.32C350.09 176.55 353.5 177.39 356.47 178.89C359.46 180.33 362.17 182.44 364.68 185.15C367.19 187.87 369.27 191.07 370.94 194.78C374.7 203.06 375.65 210.92 373.8 218.37C371.92 225.84 367.63 231.32 360.9 234.8L366.35 246.81L360.5 249.46ZM313.32 145.54C309.82 148 307.68 151.24 306.81 155.25C305.99 159.27 306.48 163.31 308.32 167.36C310.15 171.42 312.63 174.39 315.74 176.29C318.87 178.17 323.06 178.91 328.26 178.48L313.32 145.54ZM356.44 224.96C360.02 222.69 362.25 219.25 363.2 214.62C364.14 210.04 363.47 205.22 361.16 200.16C359.23 195.83 356.77 192.77 353.84 190.98C350.88 189.17 346.28 188.43 340 188.78L356.44 224.96Z" />
						</g>
					</g>
					<g id="&lt;Group&gt;">
						<path id="&lt;Path&gt;" class="shp4" d="M639.36 571.6C639.36 610.27 624.05 621.21 585.37 621.21L39.73 621.21C1.06 621.21 0.36 617.57 0.36 578.9L0.36 182.56C0.65 176.23 0.95 171.11 1.27 167.18C1.95 158.31 5.54 149.5 12.03 140.74C15.92 156.96 23.37 167.33 34.39 171.86C51.65 178.96 66.98 182.2 80.37 181.59L585.37 181.59C624.05 181.59 639.36 186.68 639.36 225.35L639.36 571.6Z" />
						<g id="&lt;Group&gt;">
							<g id="&lt;Group&gt;">
								<path id="&lt;Path&gt;" class="shp5" d="M46.57 208.12L10.57 208.1C5.59 208.1 1.57 204.06 1.57 199.1C1.57 194.13 5.59 190.1 10.57 190.1L46.57 190.12C51.54 190.12 55.57 194.15 55.57 199.12C55.57 204.09 51.54 208.12 46.57 208.12Z" />
							</g>
							<g id="&lt;Group&gt;">
								<path id="&lt;Compound Path&gt;" class="shp5" d="M572.24 610.43L554.47 610.43C549.51 610.43 545.47 606.41 545.47 601.43C545.47 596.46 549.51 592.43 554.47 592.43L572.24 592.43C602.25 592.43 607.21 589.81 609.79 580.18C611.07 575.38 615.98 572.5 620.81 573.82C625.61 575.1 628.48 580.02 627.18 584.84C620.34 610.43 596.98 610.43 572.24 610.43ZM481.98 610.43L409.47 610.43C404.5 610.43 400.47 606.41 400.47 601.43C400.47 596.46 404.5 592.43 409.47 592.43L481.98 592.43C486.94 592.43 490.98 596.46 490.98 601.43C490.98 606.41 486.94 610.43 481.98 610.43ZM336.96 610.43L264.45 610.43C259.48 610.43 255.45 606.41 255.45 601.43C255.45 596.46 259.48 592.43 264.45 592.43L336.96 592.43C341.92 592.43 345.96 596.46 345.96 601.43C345.96 606.41 341.92 610.43 336.96 610.43ZM191.94 610.43L119.43 610.43C114.46 610.43 110.43 606.41 110.43 601.43C110.43 596.46 114.46 592.43 119.43 592.43L191.94 592.43C196.91 592.43 200.94 596.46 200.94 601.43C200.94 606.41 196.91 610.43 191.94 610.43ZM620.39 519.17C615.41 519.17 611.39 515.14 611.39 510.17L611.39 437.66C611.39 432.68 615.41 428.66 620.39 428.66C625.36 428.66 629.39 432.68 629.39 437.66L629.39 510.17C629.39 515.14 625.36 519.17 620.39 519.17ZM620.39 374.15C615.41 374.15 611.39 370.12 611.39 365.15L611.39 292.64C611.39 287.68 615.41 283.64 620.39 283.64C625.36 283.64 629.39 287.68 629.39 292.64L629.39 365.15C629.39 370.12 625.36 374.15 620.39 374.15ZM617.61 229.41C613.8 229.41 610.25 226.95 609.03 223.11C606.48 215.03 602.09 208.35 574.19 208.35L554.12 208.33C549.15 208.33 545.12 204.31 545.12 199.33C545.12 194.36 549.15 190.33 554.12 190.33L574.19 190.35C596.71 190.35 618.6 193.65 626.21 217.68C627.7 222.43 625.07 227.49 620.34 228.99C619.42 229.27 618.51 229.41 617.61 229.41ZM481.61 208.31L409.1 208.28C404.13 208.28 400.1 204.24 400.1 199.28C400.1 194.3 404.14 190.28 409.1 190.28L409.12 190.28L481.63 190.31C486.58 190.31 490.61 194.34 490.61 199.31C490.61 204.29 486.58 208.31 481.61 208.31ZM336.61 208.24L336.59 208.24L264.08 208.21C259.12 208.21 255.08 204.18 255.1 199.21C255.1 194.23 259.12 190.21 264.1 190.21L336.61 190.24C341.58 190.24 345.61 194.29 345.61 199.24C345.59 204.22 341.57 208.24 336.61 208.24ZM191.59 208.17L119.08 208.16C114.1 208.16 110.08 204.11 110.08 199.14C110.08 194.18 114.1 190.16 119.08 190.16L191.59 190.17C196.56 190.17 200.59 194.22 200.59 199.19C200.59 204.15 196.56 208.17 191.59 208.17Z" />
							</g>
							<g id="&lt;Group&gt;">
								<path id="&lt;Path&gt;" class="shp5" d="M46.57 610.43L10.57 610.43C5.59 610.43 1.57 606.41 1.57 601.43C1.57 596.46 5.59 592.43 10.57 592.43L46.57 592.43C51.54 592.43 55.57 596.46 55.57 601.43C55.57 606.41 51.54 610.43 46.57 610.43Z" />
							</g>
						</g>
						<path id="&lt;Path&gt;" class="shp4" d="M604.78 554.5C604.78 587.3 593.25 589.78 559.67 589.78L1.32 589.78L1.32 209.79L561.47 210.04C595.08 210.04 604.78 219.32 604.78 252.1L604.78 554.5Z" />
					</g>
					<g id="&lt;Group&gt;">
						<path id="&lt;Path&gt;" class="shp6" d="M671.19 416.47L496.11 416.47C484.79 416.47 463.66 396.19 463.66 355.25C463.66 314.31 484.79 295.18 496.11 295.18L671.19 295.18C677.01 295.18 676.38 416.47 671.19 416.47Z" />
						<path id="&lt;Path&gt;" class="shp7" d="M671.19 426.19L496.11 426.19C484.79 426.19 463.66 405.93 463.66 364.99C463.66 324.05 484.79 304.91 496.11 304.91L671.19 304.91C677.01 304.91 676.38 426.19 671.19 426.19Z" />
						<path id="&lt;Path&gt;" class="shp8" d="M541.6 365.9C541.6 380.67 531.37 392.64 518.75 392.64C506.13 392.64 495.9 380.67 495.9 365.9C495.9 351.12 506.13 339.15 518.75 339.15C531.37 339.15 541.6 351.12 541.6 365.9Z" />
						<path id="&lt;Path&gt;" class="shp9" d="M537.16 365.9C537.16 377.8 528.93 387.45 518.75 387.45C508.58 387.45 500.35 377.8 500.35 365.9C500.35 354 508.58 344.33 518.75 344.33C528.93 344.33 537.16 354 537.16 365.9Z" />
					</g>
				</g>
			</g>
		</g>
	</g>
</svg>