<svg xmlns="http://www.w3.org/2000/svg" viewBox="0 0 746 634" width="746" height="634">
	<style>
		tspan { white-space:pre }
		.shp0 { fill: #37919b } 
		.shp1 { fill: #2c8484 } 
		.shp2 { fill: #308a8e } 
		.shp3 { fill: #30898e } 
		.shp4 { fill: #6a7872 } 
		.shp5 { fill: #9dc3c5 } 
		.shp6 { fill: #8fb5b6 } 
		.shp7 { opacity: 0.502;fill: #aed1d5 } 
		.shp8 { fill: #aed1d5 } 
	</style>
	<g id="Isolation Mode">
		<g id="&lt;Group&gt;">
			<g id="&lt;Group&gt;">
				<g id="&lt;Group&gt;">
					<path id="&lt;Path&gt;" class="shp0" d="M102.94 529.17L102.94 588.53C102.94 593.21 108.1 596.98 113.25 596.98L468.52 596.98C475.36 596.98 479.69 593.21 479.69 588.53L479.69 529.17L102.94 529.17Z" />
					<path id="&lt;Path&gt;" class="shp0" d="M451.7 230.25L448.24 230.25L135.1 230.25L131.64 230.25C115.79 230.25 102.94 243.1 102.94 258.96L102.94 483.73C102.94 499.57 115.79 512.43 131.64 512.43L136.69 512.43L446.68 512.43L451.7 512.43C467.56 512.43 480.41 499.57 480.41 483.73L480.41 258.96C480.41 243.1 467.56 230.25 451.7 230.25Z" />
					<path id="&lt;Path&gt;" class="shp1" d="M481.6 479L131.64 478.98C115.79 478.98 102.94 481.76 102.94 485.17L102.94 544.58L448.24 543.37L479.9 541.63L481.6 479Z" />
					<path id="&lt;Path&gt;" class="shp2" d="M14.62 462.27L108.1 484.13L137.27 438.25C157.55 417.38 162.55 395.8 152.28 373.5C141.98 351.2 125.68 339.62 103.38 338.76L18.05 398.39L14.62 462.27Z" />
					<path id="&lt;Path&gt;" class="shp3" d="M481.59 478.98L481.59 438.25L137.27 438.25L108.1 484.13L481.59 478.98Z" />
					<path id="&lt;Path&gt;" class="shp0" d="M108.95 436.99C108.95 407.55 84.76 383.67 54.91 383.67C25.08 383.67 0.89 407.55 0.89 436.99C0.89 459.93 15.57 479.42 36.14 486.98L36.14 618.46C36.14 638.57 108.95 638.57 108.95 618.46L108.95 440.86C108.95 440.42 108.82 439.99 108.82 439.55C108.86 438.71 108.95 437.85 108.95 436.99Z" />
					<path id="&lt;Path&gt;" class="shp2" d="M569.49 462.27L476.01 484.13L446.85 438.25C426.55 417.38 421.55 395.8 431.84 373.5C442.14 351.2 458.44 339.62 480.72 338.76L566.07 398.39L569.49 462.27Z" />
					<path id="&lt;Path&gt;" class="shp0" d="M475.17 436.99C475.17 407.55 499.36 383.67 529.19 383.67C559.04 383.67 583.22 407.55 583.22 436.99C583.22 459.93 568.54 479.42 547.96 486.98L547.96 618.46C547.96 638.57 475.17 638.57 475.17 618.46L475.17 440.86C475.17 440.42 475.29 439.99 475.29 439.55C475.26 438.71 475.17 437.85 475.17 436.99Z" />
				</g>
				<g id="&lt;Group&gt;">
					<path id="&lt;Path&gt;" class="shp4" d="M744.26 619.59L668.32 578.91C667.28 577.58 665.66 576.77 663.94 576.75C662.29 576.72 660.6 577.49 659.55 578.84L579.71 619.99C578.35 621.68 578.07 624 578.99 625.94C579.94 627.9 581.9 629.14 584.05 629.14L740.23 629.14C740.24 629.14 740.26 629.14 740.28 629.14C743.39 629.14 745.89 626.64 745.89 623.53C745.89 622 745.26 620.59 744.26 619.59Z" />
					<g id="&lt;Group&gt;">
						<g id="&lt;Group&gt;">
							<path id="&lt;Path&gt;" class="shp4" d="M664.93 608.92C659.25 608.92 654.64 604.32 654.64 598.62L654.64 150.08C654.71 148.73 658.46 97.12 625.9 61.85C605.09 39.3 573.64 27.88 532.42 27.88C526.74 27.88 522.14 23.27 522.14 17.57C522.14 11.88 526.74 7.29 532.42 7.29C579.71 7.29 616.3 21 641.18 48.07C679.81 90.1 675.38 148.48 675.19 150.96L675.23 598.62C675.23 604.32 670.62 608.92 664.93 608.92Z" />
						</g>
						<g id="&lt;Group&gt;">
							<path id="&lt;Path&gt;" class="shp4" d="M664.93 428.66C655.08 428.66 647.08 436.64 647.08 446.5L647.08 589.39C647.24 591.75 683.07 592.17 682.71 587.9L682.77 446.5C682.77 436.64 674.8 428.66 664.93 428.66Z" />
						</g>
					</g>
				</g>
				<g id="&lt;Group&gt;">
					<path id="&lt;Path&gt;" class="shp5" d="M674.36 605.26C674.36 610.59 670.04 614.91 664.71 614.91C659.39 614.91 655.06 610.59 655.06 605.26C655.06 599.94 659.39 595.61 664.71 595.61C670.04 595.61 674.36 599.94 674.36 605.26Z" />
					<path id="&lt;Path&gt;" class="shp6" d="M671.08 605.26C671.08 608.78 668.21 611.63 664.71 611.63C661.2 611.63 658.37 608.78 658.37 605.26C658.37 601.75 661.2 598.9 664.71 598.9C668.21 598.9 671.08 601.75 671.08 605.26Z" />
				</g>
				<path id="&lt;Path&gt;" class="shp7" d="M478.4 90.91C478.4 104.06 467.75 114.71 454.6 114.71C441.45 114.71 430.8 104.06 430.8 90.91C430.8 77.76 441.45 67.11 454.6 67.11C467.75 67.11 478.4 77.76 478.4 90.91Z" />
				<g id="&lt;Group&gt;">
					<path id="&lt;Path&gt;" class="shp8" d="M517.16 141.83L532.09 18.56C532.3 16.87 531.7 15.17 530.49 13.95C529.33 12.76 527.57 12.13 525.9 12.34L399.71 26.57C397.56 26.82 395.73 28.3 395.03 30.32C394.33 32.38 394.86 34.63 396.42 36.15L507.6 145.81C507.61 145.82 507.62 145.83 507.64 145.84C509.85 148.02 513.38 147.99 515.56 145.79C516.62 144.68 517.2 143.24 517.16 141.83Z" />
					<path id="&lt;Path&gt;" class="shp8" d="M510.57 18.01C510.57 8.08 518.64 0.01 528.59 0.01C538.52 0.01 546.59 8.08 546.59 18.01C546.59 27.96 538.52 36.03 528.59 36.03C518.64 36.03 510.57 27.96 510.57 18.01Z" />
				</g>
			</g>
		</g>
	</g>
</svg>